<svg xmlns="http://www.w3.org/2000/svg" width="342" height="1016" viewBox="0 0 342 1016" font-family="Helvetica, Arial, sans-serif" font-size="15">
  <defs>
    <marker id="ah" markerWidth="12" markerHeight="12" refX="10" refY="6" orient="auto" markerUnits="userSpaceOnUse">
      <path d="M0,0 L12,6 L0,12 z" fill="#000"/>
    </marker>
  </defs>
  <rect width="342" height="1016" fill="#fff"/>
  <g>
    <rect x="16" y="12" width="310" height="204" fill="#fff" stroke="#000" stroke-width="2"/>
    <text x="171" y="31" text-anchor="middle" font-size="14" fill="#000">Genesis block</text>
    <rect x="20" y="40" width="302" height="40" fill="#55369d"/>
    <rect x="20" y="80" width="302" height="92" fill="#775eaf"/>
    <rect x="20" y="172" width="302" height="40" fill="#9987c3"/>
    <text x="171" y="67" text-anchor="middle" font-size="20" font-weight="700" fill="#fff">BLOCK<tspan dy="4" font-size="11">0</tspan></text>
    <text x="32" y="131" font-weight="700" fill="#fff">HEADER</text>
    <text x="246" y="105" text-anchor="middle" fill="#fff">-</text>
    <text x="246" y="131" text-anchor="middle" fill="#fff">Timestamp</text>
    <text x="246" y="157" text-anchor="middle" fill="#fff">Nonce</text>
    <text x="32" y="197" font-weight="700" fill="#fff">TRANSACTIONS</text>
    <text x="246" y="197" text-anchor="middle" fill="#fff">-</text>
  </g>
  <g>
    <rect x="16" y="268" width="310" height="204" fill="#fff" stroke="#000" stroke-width="2"/>
    <text x="171" y="287" text-anchor="middle" font-size="14" fill="#000">First block</text>
    <rect x="20" y="296" width="302" height="40" fill="#034697"/>
    <rect x="20" y="336" width="302" height="92" fill="#326cab"/>
    <rect x="20" y="428" width="302" height="40" fill="#6690c0"/>
    <text x="171" y="323" text-anchor="middle" font-size="20" font-weight="700" fill="#fff">BLOCK<tspan dy="4" font-size="11">1</tspan></text>
    <text x="32" y="387" font-weight="700" fill="#fff">HEADER</text>
    <text x="246" y="361" text-anchor="middle" fill="#fff">Block<tspan dy="4" font-size="11">0</tspan><tspan dy="-4"> Hash</tspan></text>
    <text x="246" y="387" text-anchor="middle" fill="#fff">Timestamp<tspan dy="4" font-size="11">1</tspan></text>
    <text x="246" y="413" text-anchor="middle" fill="#fff">Nonce<tspan dy="4" font-size="11">1</tspan></text>
    <text x="32" y="453" font-weight="700" fill="#fff">TRANSACTIONS</text>
    <text x="246" y="453" text-anchor="middle" fill="#fff">Merkle Root<tspan dy="4" font-size="11">1</tspan></text>
  </g>
  <g>
    <rect x="16" y="524" width="310" height="204" fill="#fff" stroke="#000" stroke-width="2"/>
    <text x="171" y="543" text-anchor="middle" font-size="14" fill="#000">Second block</text>
    <rect x="20" y="552" width="302" height="40" fill="#0493d5"/>
    <rect x="20" y="592" width="302" height="92" fill="#35abdd"/>
    <rect x="20" y="684" width="302" height="40" fill="#67bfe5"/>
    <text x="171" y="579" text-anchor="middle" font-size="20" font-weight="700" fill="#fff">BLOCK<tspan dy="4" font-size="11">2</tspan></text>
    <text x="32" y="643" font-weight="700" fill="#fff">HEADER</text>
    <text x="246" y="617" text-anchor="middle" fill="#fff">Block<tspan dy="4" font-size="11">1</tspan><tspan dy="-4"> Hash</tspan></text>
    <text x="246" y="643" text-anchor="middle" fill="#fff">Timestamp<tspan dy="4" font-size="11">2</tspan></text>
    <text x="246" y="669" text-anchor="middle" fill="#fff">Nonce<tspan dy="4" font-size="11">2</tspan></text>
    <text x="32" y="709" font-weight="700" fill="#fff">TRANSACTIONS</text>
    <text x="246" y="709" text-anchor="middle" fill="#fff">Merkle Root<tspan dy="4" font-size="11">2</tspan></text>
  </g>
  <g>
    <rect x="16" y="800" width="310" height="204" fill="#fff" stroke="#000" stroke-width="2"/>
    <text x="171" y="819" text-anchor="middle" font-size="14" fill="#000">Current last block</text>
    <rect x="20" y="828" width="302" height="40" fill="#019855"/>
    <rect x="20" y="868" width="302" height="92" fill="#33ad7a"/>
    <rect x="20" y="960" width="302" height="40" fill="#66c29b"/>
    <text x="171" y="855" text-anchor="middle" font-size="20" font-weight="700" fill="#fff">BLOCK<tspan dy="4" font-size="11">n</tspan></text>
    <text x="32" y="919" font-weight="700" fill="#fff">HEADER</text>
    <text x="246" y="893" text-anchor="middle" fill="#fff">Block<tspan dy="4" font-size="11">n-1</tspan><tspan dy="-4"> Hash</tspan></text>
    <text x="246" y="919" text-anchor="middle" fill="#fff">Timestamp<tspan dy="4" font-size="11">n</tspan></text>
    <text x="246" y="945" text-anchor="middle" fill="#fff">Nonce<tspan dy="4" font-size="11">n</tspan></text>
    <text x="32" y="985" font-weight="700" fill="#fff">TRANSACTIONS</text>
    <text x="246" y="985" text-anchor="middle" fill="#fff">Merkle Root<tspan dy="4" font-size="11">n</tspan></text>
  </g>
  <line x1="171" y1="218" x2="171" y2="266" stroke="#000" stroke-width="2.5" marker-end="url(#ah)"/>
  <text x="185" y="247" font-size="13" fill="#000">block 0 hash</text>
  <line x1="171" y1="474" x2="171" y2="522" stroke="#000" stroke-width="2.5" marker-end="url(#ah)"/>
  <text x="185" y="503" font-size="13" fill="#000">block 1 hash</text>
  <line x1="171" y1="732" x2="171" y2="758" stroke="#35abdd" stroke-width="4" stroke-dasharray="4 4"/>
  <line x1="171" y1="758" x2="171" y2="798" stroke="#000" stroke-width="2.5" marker-end="url(#ah)"/>
  <text x="185" y="783" font-size="13" fill="#000">block n-1 hash</text>
</svg>
